<!-- Created with Inkscape (http://www.inkscape.org/) -->
<svg id="svg2" xmlns:rdf="http://www.w3.org/1999/02/22-rdf-syntax-ns#" xmlns="http://www.w3.org/2000/svg" height="163" width="392" version="1.1" xmlns:cc="http://creativecommons.org/ns#" xmlns:xlink="http://www.w3.org/1999/xlink" xmlns:dc="http://purl.org/dc/elements/1.1/">
 <defs id="defs4">
  <linearGradient id="linearGradient3761" y2="217.4" gradientUnits="userSpaceOnUse" x2="395.79" y1="216.25" x1="-33.843">
   <stop id="stop3759" stop-color="#0000be" stop-opacity="0" offset="0"/>
   <stop id="stop3757" stop-color="#0000be" offset="1"/>
  </linearGradient>
 </defs>
 <metadata id="metadata7">
  <rdf:RDF>
   <cc:Work rdf:about="">
    <dc:format>image/svg+xml</dc:format>
    <dc:type rdf:resource="http://purl.org/dc/dcmitype/StillImage"/>
    <dc:title/>
   </cc:Work>
  </rdf:RDF>
 </metadata>
 <g id="layer1" transform="translate(-3.4416835,-897.39277)">
  <path id="savant-elipse" d="m395.79,217.4c0,44.985-87.703,81.453-195.89,81.453s-195.89-36.468-195.89-81.453,87.703-81.453,195.89-81.453,195.89,36.468,195.89,81.453z" transform="translate(-0.57361377,761.54)" fill="url(#linearGradient3761)"/>
  <path id="savant-yline" stroke-linejoin="miter" d="M4.0153,982.38,394.07,979.51" stroke="#d4d4d4" stroke-linecap="butt" stroke-width="1px" fill="#c5c5c5"/>
  <path id="savant-greyball" d="m50.478,146.27c0,6.336-5.2647,11.472-11.759,11.472-6.4944,0-11.759-5.1363-11.759-11.472,0-6.336,5.2647-11.472,11.759-11.472,6.4944,0,11.759,5.1363,11.759,11.472z" transform="translate(-23.518164,836.10978)" fill="#CCC"/>
  <flowRoot id="flowRoot3767" style="letter-spacing:0px;word-spacing:0px;" font-weight="normal" xml:space="preserve" font-size="20px" transform="translate(-16.913958,925.59353)" font-stretch="normal" line-height="125%" font-variant="normal" font-style="normal" font-family="Gotham-Bold" fill="#000000"><flowRegion id="flowRegion3769"><rect id="rect3771" ry="6.3098" height="24.092" width="18.356" y="43.021" x="22.945"/></flowRegion><flowPara id="flowPara3773">x</flowPara></flowRoot>
  <path id="savant-xline" stroke-linejoin="miter" d="m251.82,900.35,2.2945,155.95" stroke="#f1ff52" stroke-linecap="butt" stroke-width="1.00346005px" fill="none"/>
  <path id="savant-yellowball" d="m257.55,145.12c0,3.168-2.825,5.7361-6.3098,5.7361s-6.3098-2.5682-6.3098-5.7361c0-3.168,2.825-5.7361,6.3098-5.7361s6.3098,2.5682,6.3098,5.7361z" transform="matrix(0.69857523,0,0,0.69857523,77.284377,877.92749)" stroke="#f1ff52" stroke-miterlimit="4" stroke-dasharray="none" stroke-width="10" fill="#FF0"/>
 </g>
</svg>